<svg xmlns="http://www.w3.org/2000/svg" viewBox="0 335.5 1190.55 170.89">
  <title>The Paciello Group</title>
  <path fill="#6D6E71" d="M202.9 389.17H256v9.92h-20.85v55.6h-11.5v-55.6H202.9v-10zm60.95 0h11.5v26.1h29.85v-26.1h11.5v65.6h-11.5V425.2h-29.86v29.57h-11.5v-65.6zm67.25 0h47.24v9.92H342.6v17.1h33.08v9.4H342.6v19.2H379v9.9h-47.9v-65.6z"/>
  <path fill="#1C75BC" d="M390.66 389.17h31.14c12.23 0 23.7 5.6 23.7 21.13 0 16.26-9.27 22.6-23.7 22.6h-14.06v21.87h-17.1l.02-65.6zm17.1 30.5h11.47c5.33 0 9.2-2.2 9.2-8.18 0-6.2-3.96-8.7-9.2-8.7h-11.48v16.8zm59.94-30.5h17.36l24.54 65.6h-17.83L487.73 443h-22.88l-4.14 11.77h-17.5l24.6-65.6zm1.1 41.16h14.88l-7.25-22.97h-.2l-7.43 22.97zm87.4-17.73c-.93-6.62-6.08-10.1-13.25-10.1-11.02 0-15.25 9.73-15.25 19.47 0 9.74 4.23 19.48 15.25 19.48 8 0 12.6-4.6 13.24-12.13h17c-.9 16.9-13.4 26.83-30 26.83-19.88 0-32.7-15.16-32.7-34.18s12.82-34.18 32.7-34.18c14.12 0 29.5 9 29.93 24.8h-17.1zm27.48-23.43h17.1v65.6h-17.1v-65.6zm30.4 0h52.28v13.7h-35.2v11.47h32.17v13.23h-32.16v12.5h36.1v14.7h-53.2v-65.6zm64.86 0h17.1v50.9h30.6v14.7h-47.7v-65.6zm55.94 0h17.1v50.9h30.6v14.7h-47.7v-65.6zm85.36-1.37c20.67 0 32.34 15.15 32.34 34.17s-11.67 34.18-32.34 34.18S787.9 441 787.9 421.97s11.66-34.18 32.34-34.18zm0 53.65c11.02 0 15.25-9.74 15.25-19.48s-4.3-19.48-15.3-19.48-15.3 9.7-15.3 19.4 4.2 19.5 15.2 19.5z"/>
  <path fill="#6D6E71" d="M922.97 454.77h-7.35l-1.75-7.7c-6.16 6.97-11.76 9.26-19.75 9.26-19.67 0-31.43-15.62-31.43-34.36 0-18.74 11.7-34.36 31.4-34.36 14.3 0 26.3 7.7 28.1 22.5H911c-1.1-8.6-8.62-13-16.9-13-14.05 0-19.93 12.4-19.93 25s5.88 25 19.94 25c11.8.2 18.2-6.9 18.4-18h-17.4v-8.72H923v34.55zm13.43-65.6h31.35c14.33 0 21.68 6.6 21.68 17.73 0 12.6-8.73 15.8-10.84 16.54v.18c3.9.56 9.7 3.5 9.7 13.88 0 7.63 1.1 14.6 3.6 17.27h-12.3c-1.8-2.84-1.8-6.43-1.8-9.64 0-12.04-2.5-17.37-13.1-17.37h-16.9v27h-11.4v-65.6zm11.5 29.86h18.84c7.26 0 11.2-3.58 11.2-10.48 0-8.36-5.4-10-11.4-10H947.9v20.48zm113.1 2.94c0 18.74-11.76 34.36-31.42 34.36-19.67 0-31.43-15.62-31.43-34.36 0-18.75 11.76-34.37 31.43-34.37 19.66 0 31.42 15.63 31.42 34.37zm-51.36 0c0 12.6 5.88 25 19.94 25s19.94-12.4 19.94-25-5.88-25-19.94-25-19.94 12.4-19.94 25zm61.8-32.8h11.5v38.22c0 8.8.53 19 15.42 19s15.43-10.2 15.43-19v-38.3h11.4v42c0 16.8-10.8 25.1-26.9 25.1s-27-8.38-27-25.2v-42zm67.84 0h28.94c18.75 0 22.33 12.13 22.33 20.3 0 8.1-3.58 20.22-22.33 20.13h-17.46v25.17h-11.48v-65.6zm11.48 31.05h16.82c5.15 0 11.48-2.57 11.48-10.84 0-8.64-5.24-10.84-11.3-10.84h-17v21.68z"/>
  <path fill="#1C75BC" d="M44.96 506.4l21.1-68.58c-12.14-8.27-20.12-22.2-20.12-38 0-25.37 20.58-45.94 45.95-45.94s45.9 20.57 45.9 45.94c0 15.8-8 29.73-20.1 38l21.1 68.57c26.9-16.1 44.9-45.4 44.9-79 0-50.8-41.2-91.9-91.9-91.9S0 376.6 0 427.4c0 33.6 18 62.9 44.9 79z"/></svg>
