<svg xmlns="http://www.w3.org/2000/svg" viewBox="0 0 434.43 355.77"><g transform="translate(-91.36 -285.92)"><path fill="#fcb316" d="M270.06 288.42a79.15 79.15 0 0 0-74.84 59.8 79.15 79.15 0 0 0-.57 35.63 43.67 44.72 0 0 1 29.1-2.9 43.67 44.72 0 0 1 26.78 20.35l.22-.9c11.25-43.4 39.1-62.38 93.48-65.1a79.15 79.15 0 0 0-53.04-44.53 79.15 79.15 0 0 0-21.2-2.35z"/><path fill="#1a1a1a" d="M211.42 377.4h.1c-.2.02-.36.1-.55.15-.24-.06-.43-.08-.62-.1-.44 0-.94.02-1.48.07-1.1.08-2.34.24-3.02.33-12.73 1.6-25.7 8.7-32.6 21.14-.23.3-.44.6-.65 1-.42.7-.82 1.5-1.2 2.2l-1.4-.1c-.66-.3-1.45-.5-2.4-.3-12.32-1.3-25.88 1.3-35.66 10.6-1.18.7-1.64 1.8-2.1 2.5-.24.3-.44.5-.5.6a1.43 1.43 0 0 0-.28-.1c-9.75-1-20.42-.3-29.23 5.6-2.03 1.3-3.77 3.3-4.73 5.7-.95 2.4-1.07 5.3.4 7.8a1.43 1.43 0 0 0 .03 0c4.28 6.8 12.06 8.8 18.5 10a1.43 1.43 0 0 0 .06 0c6.3 1 12.8.9 19.1-.5 10.6 9 24.8 11.1 37.6 9 5.6-1.1 11.2-3.1 16.2-6.4 13.7 8.5 30.9 9.3 45.3 2.7 7.2 2.4 14.7 3.4 22.3 3.1V450c-7.4.37-14.9-.7-21.9-3.12a1.43 1.43 0 0 0-1.1.06c-14 6.56-30.8 5.76-44-2.82a1.43 1.43 0 0 0-1.7.03c-4.8 3.37-10.3 5.35-15.9 6.4-12.4 2.05-26 0-35.8-8.77a1.43 1.43 0 0 0-1.3-.33c-6.2 1.4-12.6 1.54-18.8.57-6.3-1.23-13-3.05-16.6-8.73-1-1.8-1-3.6-.2-5.4.7-1.8 2.1-3.4 3.6-4.4a1.43 1.43 0 0 0 0-.1c7.8-5.3 17.5-6.1 26.7-5.3-1.5 2.5-2.6 5.5-2.4 8.5 11-20.3 24.9-21.6 43.4-19.5-.73 2.3-1.16 4.6-1 7 10.1-21.1 27.2-31.3 44.14-31.6 15.9-.3 31.62 8.3 41.14 24.9.5.6.8 1.6 1.2 2.4v-7l-.84-1.7h.1a1.43 1.43 0 0 0 .1 0h.67v-2.9h-.45c-.8-.1-1.5-.1-2.1 0-2.7-4.1-6.04-7.6-9.85-10.5-8.7-7.4-20.06-10.8-30.88-10.7z" style="text-decoration-color:#000000;text-decoration-line:none;mix-blend-mode:normal;block-progression:tb;text-indent:0;text-decoration-style:solid;isolation:auto;text-transform:none" color="#000" solid-color="#000000" white-space="normal"/><path fill="#1a1a1a" d="M344.03 335.26l-1.58 2.54c-8.83 14.2-11.36 30.86-10.1 66.6.64 18.6 2 41.88 3 51.77.7 6.84 6.82 57.82 8.2 68.52 8.33-.5 16.57.5 25.63 2.6 2.2-5.9 9.35-23.3 15.83-38.6 11.2-26.2 15-37.9 18.3-55.7 2.2-12.1 2.9-21.7 2.6-35.3-.6-23-3.7-34.7-12.3-46.1-3.7-4.9-12.4-13.6-14.1-14-1.4-.4-11.9-2-12-1.8 0 0-8.9-.8-13.4-.4l-3.8-.4h-6zm-11.12.8l-5.7.8c-3.2.43-6.2.94-6.8 1.13-4.4.6-8.4 1.5-12.1 2.8-.5 0-1.8.3-4.2 1-9 2.5-11.8 4-14.7 7.5-11.2 13.6-20.4 32.8-23 47.9-2.6 15 1.3 40.2 9.1 58.8 6.8 16.2 24.2 44.8 40.6 66.8 2.5 3.3 3.9 5.2 4.4 6.4 6.3-2.1 12.2-3.5 18-4.2-2.4-10.3-8.3-39-12.2-58.8-1.6-8.6-4.4-25.5-5.7-35.6-1.2-9-1.4-12.4-1.3-28.2.1-19.3.7-28.8 2.7-38.3 2.6-10.6 5.9-19.8 11.2-28.3zm58.1 4.44c-.1 0-.2 0-.1.1l4.7 3.7c12 9.45 20.1 25.95 22.6 45.67 1 7.47.5 25.58-.9 33-4.4 24.38-17.4 57.62-37.3 95.35l-5.4 10.34c5 1.36 10.3 3.07 16 5.06 20.6-20.84 32.7-35.06 43-50.6 14.1-21.22 19.8-36.04 21.8-56.15 1.8-17.85-2.8-37.2-12.1-51.6-.5-.75-1-1.54-1.6-2.33-5.7-10.92-17.3-21.48-37.8-28.74-4.2-1.54-11.3-3.64-12.6-3.77zM280.6 352c-.36-.23-2.6 1.45-6.97 4.9-20.46 16.1-31.4 43.08-28.64 70.56 1.4 14.1 4.2 24.06 10.5 36.63 10.4 20.9 26.2 41.3 53.6 69l.3.3c2.3-1 4.6-1.9 6.8-2.7-1.2-.6-2.6-2.4-6.8-8-9.1-12.1-15.6-21.3-23.3-33-9.2-13.9-9-13.5-14.4-23.3-11.1-19.9-14.8-31.6-15.3-49.1-.4-11.3.2-16.6 3.1-26.7 3.9-13.5 7-19.6 16.5-32.2 3.2-4.2 4.7-6.4 4.3-6.6zm65.23 178.43c-11.12.06-22.5 1.37-34.84 4.6 8.3 8.5 17.7 18.26 21.4 22.48l7.3 8.3h20.4l7-7.9c3.7-4.2 13.3-14.2 21.7-22.7-14.9-2.6-28.9-4.7-43.2-4.6zm-4.5 37.34c-.6 0-1.1.27-1.44.67h-.1v.06c-.2.3-.4.7-.4 1.13v5.08c0 1.1.8 1.9 1.9 1.9v12H340c-1.03 0-1.86.9-1.86 1.9v12.3c0 1 .84 1.9 1.86 1.9h6.04c2.86.1 6 .1 8.7 0h5.3c1 0 1.86-.8 1.86-1.8v-12.4c0-1-.8-1.8-1.82-1.8H358v-12h.6c1 0 1.84-.8 1.84-1.8v-5.1c0-.4-.2-.9-.5-1.2v-.2h-.3c-.3-.2-.67-.3-1.07-.3h-17.2zm3.9 8.8h.9c.8.08 1.2.45 1.3 1.3.18 1.1.6 1.34 2.3 1.34s2.14-.2 2.3-1.3c.1-.9.5-1.2 1.4-1.3h1.6v12h-10.3l-.05-.1v-11.6c.12-.2.3-.3.52-.3zM207.7 478.7l-.52.85c-2.9 4.68-3.75 10.17-3.33 21.95.2 6.13.66 13.8 1 17.07.23 2.36 2.43 20.63 2.74 22.9 2.7-.07 5.5.13 8.4.6.6-1.58 3-7.47 5.2-12.75 3.6-8.6 4.9-12.48 6-18.35.7-3.97.9-7.14.8-11.6-.2-7.6-1.3-11.45-4.1-15.18-1.2-1.7-4.1-4.5-4.7-4.7-.5-.1-4-.7-4-.6 0 0-3-.3-4.5-.2l-1.3-.2h-2zm-3.66.27l-1.9.26c-1.06.15-2.08.32-2.27.38-1.48.2-2.8.6-4 1-.17 0-.6.1-1.4.4-2.96.9-3.9 1.4-4.85 2.5-3.68 4.5-6.72 10.8-7.6 15.8-.85 5 .43 13.3 3 19.4 2.23 5.4 7.96 14.8 13.38 22.1.66.9 1.1 1.5 1.32 1.9 2.13-.4 4.15-.7 6.13-.8-.72-2.9-2.78-12.7-4.1-19.6-.55-2.8-1.45-8.4-1.9-11.7-.4-2.9-.46-4.1-.44-9.3.1-6.3.3-9.4.9-12.6.7-3.1 1.8-6.2 3.2-8.5l.5-.8zm19.13 1.47c-.08 0-.1 0-.07.02l1.52 1.22c3.94 3.12 6.62 8.56 7.44 15.06.3 2.46.13 8.43-.3 10.88-1.47 8.03-5.75 19-12.3 31.43l-1.77 3.34c1.8.3 3.6.7 5.6 1.3 6.5-6.7 10.4-11.3 13.7-16.3 4.6-7 6.5-11.9 7.2-18.5.5-5.9-1-12.3-4-17l-.6-.8c-1.9-3.6-5.8-7.1-12.5-9.5-1.4-.5-3.8-1.2-4.2-1.3zm-36.4 3.78c-.14-.07-.88.48-2.3 1.6-6.76 5.33-10.37 14.22-9.46 23.28.5 4.64 1.4 7.93 3.5 12.07 3.4 6.8 8.5 13.4 17.2 22.27.8-.23 1.6-.44 2.4-.63-.3-.3-.8-1-1.8-2.2-3-4-5.1-7-7.6-10.8-3-4.5-2.9-4.4-4.7-7.6-3.6-6.5-4.8-10.4-5-16.2-.1-3.7.1-5.4 1.1-8.8 1.3-4.4 2.3-6.4 5.5-10.6 1.1-1.4 1.6-2.1 1.5-2.1zm20.56 59.52c-3.45 0-6.97.2-10.7.67 2.8 2.9 5.95 6.2 7.22 7.6l2.4 2.7H213l2.34-2.6c1.2-1.3 4.22-4.5 6.94-7.2-5.05-.6-9.92-1-14.96-1zm-.55 11.6c-.2 0-.35.1-.46.23-.1.12-.14.24-.14.4v1.66c0 .34.28.6.62.6v3.97h-.4c-.35 0-.62.27-.62.6v4.08c0 .33.27.6.6.6h2c.94.04 1.98.03 2.88 0H213c.35 0 .62-.27.62-.6v-4.07c0-.3-.27-.6-.6-.6h-.72v-3.9h.2c.34 0 .6-.2.6-.6V556c0-.18-.05-.3-.15-.43v-.08h-.1c-.1-.1-.2-.1-.34-.1h-5.6zm1.3 2.9h.3c.27.03.4.15.43.43.1.37.2.45.8.45s.7-.08.8-.45c.1-.3.2-.4.5-.43h.6v3.96H208l-.04-.05v-3.8c.05-.07.1-.1.2-.1zm264.74-39.66l-.7 1.14c-3.96 6.35-5.1 13.82-4.53 29.82.3 8.32.9 18.75 1.3 23.18.3 3.2 3.2 27.64 3.7 30.96 3.8-.1 7.5.18 11.4.8 1-2.73 4.2-10.42 7-17.15 4.9-11.7 6.7-16.96 8.1-24.93 1-5.4 1.3-9.7 1.1-15.76-.3-10.32-1.7-15.55-5.6-20.62-1.7-2.2-5.6-6.07-6.3-6.26-.7-.16-5.4-.87-5.4-.8 0 0-4-.35-6-.2l-1.7-.18h-2.7zm-4.98.35l-2.6.36c-1.42.2-2.8.4-3.06.5-1.98.2-3.77.7-5.4 1.2-.24 0-.83.1-1.9.4-4.02 1.1-5.3 1.8-6.6 3.4-5 6.1-9.13 14.7-10.3 21.4-1.17 6.7.57 18 4.05 26.3 3.03 7.2 10.82 20 18.2 29.9.82 1.1 1.36 1.8 1.7 2.4 2.9-.6 5.65-1 8.36-1.2-1-4.1-3.8-17.3-5.5-26.6-.8-3.9-2-11.4-2.6-16-.6-4-.6-5.6-.6-12.6 0-8.6.3-12.9 1.2-17.2.8-4.3 2.4-8.5 4.3-11.6l.6-1.1zm26 2c-.1 0-.1 0-.08.03l2.07 1.65c5.35 4.3 9 11.7 10.1 20.5.42 3.4.2 11.5-.4 14.8-1.98 10.9-7.8 25.8-16.7 42.7l-2.3 4.4c2.47.5 5.05 1.1 7.77 1.8 8.76-8.9 14.03-15.1 18.5-21.9 6.3-9.5 8.9-16.1 9.77-25.1.77-8-1.26-16.6-5.43-23.1l-.7-1c-2.6-4.9-7.8-9.6-16.98-12.9-1.9-.7-5.08-1.6-5.65-1.7zm-49.45 5.14c-.2-.1-1.2.65-3.1 2.2-9.2 7.2-14.1 19.28-12.9 31.6.6 6.3 1.9 10.76 4.7 16.4 4.5 9.17 11.4 18.12 23.2 30.08 1.1-.3 2.2-.6 3.3-.85-.5-.5-1.2-1.37-2.4-2.96-4.1-5.4-7-9.54-10.4-14.75-4.1-6.3-4-6.1-6.5-10.5-5-8.9-6.6-14.2-6.9-22-.2-5.1.1-7.4 1.4-12 1.7-6.1 3.1-8.8 7.4-14.4 1.4-1.9 2.1-2.9 1.9-3zm28 80.8c-4.7 0-9.6.26-14.6.9 3.8 3.87 8.1 8.4 9.8 10.32l3.3 3.6h9.2l3.1-3.6c1.6-1.9 5.8-6.2 9.5-10-6.9-.8-13.5-1.4-20.4-1.4zm-.8 15.8c-.3 0-.5.13-.6.3h-.1v.03c-.1.14-.2.32-.2.5v2.3c0 .45.3.82.8.82V632h-.5c-.5 0-.9.37-.9.82v5.52c0 .46.3.83.8.83h2.7c1.2.04 2.7.04 3.9 0h2.4c.4 0 .8-.37.8-.83v-5.52c0-.45-.4-.82-.9-.82h-.9v-5.38h.2c.5 0 .9-.37.9-.83v-2.3c0-.2-.1-.4-.2-.6v-.1h-.1c-.2-.1-.3-.2-.5-.2h-7.8zm1.7 3.95h.4c.3.03.5.2.5.58 0 .5.2.6 1 .6s.9-.1 1-.6c0-.4.2-.54.6-.58h.7V632H473c0-.03-.04-.05-.05-.08v-5.16c.07-.1.15-.13.25-.14z"/><rect width="7.4" height="3.85" x="206.04" y="555.3" fill="#1a1a1a" ry=".77"/><rect width="9.94" height="5.16" x="470.37" y="622.86" fill="#1a1a1a" ry="1.03"/></g></svg>