<?xml version="1.0" encoding="UTF-8" standalone="no"?>
<svg xmlns:rdf="http://www.w3.org/1999/02/22-rdf-syntax-ns#" xmlns="http://www.w3.org/2000/svg" height="20mm" width="20mm" version="1.1" xmlns:cc="http://creativecommons.org/ns#" xmlns:dc="http://purl.org/dc/elements/1.1/" viewBox="0 0 70.866142 70.866141">
 <g transform="translate(0 -981.5)">
  <path style="fill:#2c5aa0" d="m17.289 1048c-7.21-.8509-13.092-7.7685-12.434-15.054.040724-4.277 2.5301-8.0762 5.6628-10.808 4.2205-4.149 8.2314-8.5453 12.768-12.351 4.4279-3.506 11.161-5.1367 16.069-1.6396 2.2215 1.1394 3.9773 4.0651 2.2611 6.3502-1.8345 2.7537-5.2548 1.3655-7.1873-.419-3.8263-1.274-7.0297 2.0314-9.4909 4.4717-3.8432 3.7992-7.8439 7.4633-11.452 11.484-2.8593 3.9821.18443 10.168 5.047 10.455 3.5202.5616 5.9731-2.3063 8.2026-4.5168 1.747-2.4628 6.0115-1.9012 6.7823 1.1213.86814 3.1536-2.4299 5.0245-4.2629 6.9846-3.1514 3.1452-7.6006 4.408-11.966 3.9216zm19.538-18.553c-3.0709-.4692-6.1443-2.1305-7.878-4.7404-1.8803-3.2548 2.5338-6.9971 5.4606-4.8023 2.1279 2.7894 6.1253 2.2963 8.3796-.066 4.9566-4.7444 9.9781-9.4545 14.567-14.557 2.424-3.335.65833-8.2806-2.936-9.9662-2.881-1.8868-6.3954-.35326-8.3119 2.1628-1.8659 2.1356-5.0059 5.1178-7.76 2.4764-2.6265-2.396-.28929-5.7447 1.9443-7.3882 2.6125-2.797 5.7896-5.4185 9.7883-5.6542 8.5807-.86905 16.868 7.2237 15.911 15.869-.15552 4.2589-2.7195 7.9194-5.8212 10.645-4.3727 4.2671-8.5558 8.7535-13.162 12.766-2.9084 2.1674-6.4898 3.6969-10.182 3.2549z"/>
 </g>
</svg>
