<!-- Created with Inkscape (http://www.inkscape.org/) -->
<svg xmlns:rdf="http://www.w3.org/1999/02/22-rdf-syntax-ns#" xmlns="http://www.w3.org/2000/svg" height="1468.3" width="1028.8" version="1.1" xmlns:cc="http://creativecommons.org/ns#" xmlns:dc="http://purl.org/dc/elements/1.1/" viewBox="0 0 1028.7508 1468.2636">
 <g transform="translate(1006.9 771.32)">
  <path style="stroke-width:0;fill:#000000" d="m-493.68-771.32v1039.8h38.006c23.817 179.99 171.55 300.9 269.08 394.75l34.994 33.672 173.47-117.35v-82.896c-40-28.177-105.58 9.4376-159.75 46.086-92.76-93.95-165.39-195.34-159.68-368.41l-.57617-.0195v-379.74c163.47-34.428 234.47-80.881 320-162.09v-83.971c-38.215-40.516-91.044 12.342-91.044 12.342-70.373 69.796-101.39 85.114-228.96 111.9v-.60547h-137.78v-53.611c65.049-21.289 114.69-74.363 131.6-140.69l.25-.99805c26.672-107.08-38.434-215.54-145.48-242.35-14.45-3.5813-29.254-5.5381-44.139-5.834z"/>
  <path d="m-491.33-771.32v1039.8h-38.006c-23.817 179.99-171.55 300.9-269.08 394.75l-34.994 33.672-173.47-117.35v-82.896c40-28.177 105.58 9.4376 159.75 46.086 92.754-93.988 165.39-195.38 159.67-368.44l.57617-.0195v-379.74c-163.47-34.428-234.47-80.881-320-162.09v-83.971c38.215-40.516 91.044 12.342 91.044 12.342 70.374 69.796 101.39 85.114 228.96 111.9v-.60547h137.78v-53.611c-65.049-21.289-114.69-74.363-131.6-140.69l-.25-.99805c-26.672-107.08 38.434-215.54 145.48-242.35 14.45-3.5813 29.254-5.5381 44.139-5.834z" style="stroke-width:0;fill:#000000"/>
 </g>
</svg>
