<svg xmlns:rdf="http://www.w3.org/1999/02/22-rdf-syntax-ns#" xmlns="http://www.w3.org/2000/svg" height="514.98" width="501.26" version="1.1" xmlns:cc="http://creativecommons.org/ns#" xmlns:xlink="http://www.w3.org/1999/xlink" viewBox="0 0 501.25662 514.97741" xmlns:dc="http://purl.org/dc/elements/1.1/">
 <defs>
  <pattern id="b" xlink:href="#a" patternTransform="matrix(3.5043 0 0 3.5043 1681.6 -943.58)"/>
  <pattern id="c" xlink:href="#Wavy" patternTransform="matrix(1.0833 0 0 1.0833 -221.52 111.53)"/>
  <pattern id="d" xlink:href="#a" patternTransform="matrix(2.3716 0 0 2.3716 2025.9 -941.24)"/>
  <pattern id="e" xlink:href="#a" patternTransform="matrix(4.3865 0 0 4.3865 1528 -820.3)"/>
  <pattern id="f" xlink:href="#Wavy" patternTransform="matrix(.96986 0 0 .96986 724.92 44.594)"/>
  <pattern id="g" xlink:href="#Wavy" patternTransform="matrix(1.1348 0 0 1.1348 379.23 241.19)"/>
  <pattern id="h" xlink:href="#Wavy" patternTransform="matrix(1.066 0 0 1.066 538.97 165.92)"/>
  <pattern id="Wavy" height="5.1805778" width="30.066020" patternUnits="userSpaceOnUse">
   <path style="fill:black" d="m7.597.061c-2.518-.248-4.941.241-7.607 1.727v1.273c2.783-1.63 5.183-2.009 7.482-1.781 2.298.228 4.497 1.081 6.781 1.938 4.567 1.713 9.551 3.458 15.813-.157l-.004-1.273c-6.44 3.709-10.816 1.982-15.371.273-2.278-.854-4.576-1.75-7.094-2z"/>
  </pattern>
  <pattern id="i" xlink:href="#a" patternTransform="matrix(3.9268 0 0 3.9268 3183.4 -1005.9)"/>
  <pattern id="j" xlink:href="#m" patternTransform="matrix(4.3112 0 0 4.3112 3217.9 -978.27)"/>
  <pattern id="k" xlink:href="#a" patternTransform="matrix(3.7151 0 0 3.7151 3141.5 -1032.2)"/>
  <pattern id="l" xlink:href="#a" patternTransform="matrix(3.7151 0 0 3.7151 3141.5 -1032.2)"/>
  <pattern id="m" height="1" width="2.5" patternUnits="userSpaceOnUse" patternTransform="translate(0) scale(10)">
   <rect style="fill:black" height="2" width="1" y="-.5" x="0"/>
  </pattern>
  <pattern id="a" height="1" width="1.5" patternUnits="userSpaceOnUse" patternTransform="translate(0) scale(10)">
   <rect style="fill:black" height="2" width="1" y="-.5" x="0"/>
  </pattern>
 </defs>
 <g transform="translate(-2519.8 1532.4)">
  <path style="fill:#111111" d="m2748.2-1338.6c-4.2513.284-6.1966 5.0404-6.6423 8.6677-1.0233 7.5854 1.5192 15.006 1.5144 22.625.8608 13.412.1135 26.951 2.9742 40.16.6667 3.6373.2297 7.4539-1.5335 10.727-.4048 1.5007-2.3752 2.9369-3.6209 1.4044-3.7946-3.8069-3.9337-9.6093-5.198-14.524-.9175-4.8608-2.5087-9.4493-4.7089-13.866-3.8823-9.3339-3.2766-19.974-8.1012-28.898-1.5433-2.114-3.315-4.9727-6.1898-5.1988-3.5344-.04-5.5641 3.4596-5.7933 6.6121-1.2561 8.9333 2.8637 17.315 4.545 25.96 2.6977 11.696 5.1032 23.466 8.9015 34.873.8563 4.0536-2.0373 9.1446-6.5339 8.9632-4.0473-.4283-5.8028-4.7288-7.9841-7.5438-6.9863-10.231-13.865-20.646-22.323-29.716-1.5422-1.5347-3.7962-3.7532-6.0233-1.9956-2.6729 2.1032-3.4631 5.8003-3.8969 9.0062-.3814 3.3252.8758 6.6518 3.2054 9.0176 7.3938 9.8603 13.948 20.334 20.434 30.785 6.1959 10.645 9.6678 22.54 12.95 34.327 2.7455 9.1365 6.5913 18.955 14.869 24.395 8.1803 5.3465 17.972 7.8618 27.695 7.9565 9.0521.0008 18.54.2681 27.013-3.5393 5.818-2.6431 11.039-6.479 16.341-10.039 6.7536-4.6359 11.856-11.148 16.915-17.491 4.3106-5.4976 7.5314-11.728 10.156-18.177 3.7689-8.0902 9.585-14.977 13.564-22.954 1.3121-2.8345 2.8678-5.5201 4.8544-7.9371 2.3295-2.9627.8983-7.6111-2.5335-8.9595-4.0464-1.9755-8.5159.4187-11.857 2.684-8.7163 6.2108-15.47 14.666-21.428 23.454-1.9396 2.851-4.8386 5.5909-8.5412 5.3762-4.7956.06-8.9614-3.7041-10.149-8.2283-5.643-14.1-6.6963-29.699-4.5374-44.642 1.4752-15.149.8157-30.504-1.8513-45.495-1.0987-4.2885-4.2898-8.8797-9.0323-9.2306-3.009.6204-3.9224 4.2013-4.6733 6.7452-2.1565 8.6731.065 17.552-.4573 26.36-.2278 10.962-.7949 21.993-2.9031 32.771-.2538 1.9299-2.246 4.1882-4.2733 2.9161-2.7512-1.7492-2.8096-5.4451-2.5024-8.3398.5377-5.8153 1.221-11.618.3522-17.437-1.2861-12.693-3.5672-25.322-4.1216-38.106-.3849-5.0011-1.9029-11.217-7.1447-13.216-.5579-.177-1.1442-.272-1.7299-.2545z"/>
  <path d="m2820.1-1265.6c2.8276 1.4828 5.9327-.7944 7.6377-2.9376 3.6237-4.4461 4.9045-10.183 7.8906-15.049 4.7013-8.9067 10.479-17.264 13.823-26.825.9983-2.585 2.7717-4.8526 5.1795-6.2535.8463-.8003 2.6675-.9464 2.8634.5205.9341 3.918-1.2489 7.6799-2.365 11.315-1.3168 3.4652-2.0967 7.0198-2.42 10.703-1.1739 7.4837-5.7266 14.045-6.1379 21.636.1584 1.9549.171 4.4752 1.9193 5.7451 2.2427 1.4093 4.9096-.031 6.2905-1.9566 4.3001-5.2161 4.9496-12.184 7.26-18.367 2.8557-8.5295 5.9269-16.992 7.9661-25.767 1.04-2.9253 4.8821-5.0453 7.6841-3.169 2.4183 1.8583 1.8563 5.2934 2.1477 7.9461.4583 9.2722.7758 18.62 2.6288 27.726.3846 1.5843.9563 3.8844 3.0673 3.6333 2.5314-.2973 4.4838-2.3502 6.0161-4.2285 1.5456-1.9755 2.0447-4.5932 1.4825-7.017-.8638-9.1948-.9506-18.453-1.0037-27.67.2092-9.2276 2.648-18.187 5.1657-27.003 1.823-6.9128 3.2097-14.692.051-21.409-3.1334-6.6189-8.4048-12.06-14.58-15.927-5.7834-3.5449-11.741-7.4303-18.645-8.3147-4.7523-.589-9.5899-.1822-14.372.016-6.1301.3177-11.94 2.4811-17.656 4.5532-4.9067 1.825-9.4042 4.5451-13.606 7.6379-5.5755 3.6935-11.988 5.8166-17.653 9.3553-1.9482 1.2974-3.9936 2.4043-6.2092 3.1707-2.6484.981-3.5539 4.5115-1.8891 6.7167 1.8119 2.8464 5.605 3.0664 8.6265 2.9271 8.001-.5556 15.627-3.3134 22.874-6.596 2.3555-1.0621 5.2805-1.6778 7.5622-.092 3.0872 1.8398 4.2757 5.8754 3.2629 9.231-1.9148 11.218-7.3492 21.598-14.579 30.3-6.8739 9.1021-12.464 19.171-16.629 29.794-.9769 3.1702-.7356 7.3531 2.1572 9.4341 2.1655.7817 4.1511-1.1486 5.6268-2.4802 4.7737-4.6971 6.8304-11.24 10.613-16.663 4.4377-6.9154 9.1186-13.741 14.685-19.802.9176-1.1338 3.0748-1.7968 3.8721-.1901 1.0731 2.1948-.3368 4.5791-1.6663 6.3083-2.6203 3.5051-5.329 6.9452-7.0523 11.004-4.1478 8.6138-7.635 17.576-12.286 25.961-1.7122 3.346-3.176 7.912-.6093 11.242.2871.3315.6245.6217 1.0056.84z" style="fill:url(#i)"/>
  <path d="m2642.4-1479.3c-1.2969 3.7645 2.0942 7.1648 5.0568 8.8643 6.1624 3.6321 13.476 4.1332 20.036 6.9003 11.864 4.1226 23.254 9.6756 35.669 12.002 3.3746.7448 6.5034 2.5052 8.6827 5.2105 1.1459.8929 1.6682 3.1108-.1035 3.6281-4.6549 1.8878-9.7029-.096-14.394-.7898-4.5193-.9723-9.0483-1.266-13.65-.9723-9.447-.042-18.392-4.4213-27.828-3.5022-2.3803.5627-5.485 1.052-6.7222 3.4459-1.3161 3.0301.9621 6.047 3.5942 7.3878 7.2388 4.3215 15.952 3.8126 24.008 5.4996 11.052 1.918 22.062 4.1144 33.264 4.9796 3.8018.7323 7.1373 5.071 5.3506 8.8781-1.8366 3.3305-6.1773 3.283-9.3929 4.141-11.345 2.3073-22.81 4.4549-33.689 8.4508-1.8811.7718-4.6093 1.9086-3.9031 4.4641.8421 3.0649 3.7399 5.0863 6.3438 6.6225 2.7256 1.5344 6.0467 1.6579 8.9293.5094 11.174-2.7926 22.572-4.6394 33.926-6.4366 11.416-1.4761 22.92-.153 34.262 1.2945 8.8649.9486 18.716 1.1966 26.404-3.9598 7.5717-5.1068 13.289-12.628 16.896-20.968 3.2835-7.7964 6.9543-15.872 6.7475-24.55-.1668-5.9697-1.5774-11.857-2.7205-17.715-1.5437-7.4979-5.3024-14.254-8.9311-20.912-3.172-5.7064-7.3706-10.74-11.973-15.339-5.6014-6.1799-9.4238-13.687-14.851-20.006-1.9656-2.158-3.7145-4.4718-5.0758-7.0593-1.7071-3.0809-6.2298-3.5338-8.6356-1.0671-3.1689 2.7688-2.7276 7.4867-1.988 11.186 2.1885 9.7597 7.0214 18.643 12.43 26.962 1.752 2.7043 3.0608 6.195 1.5332 9.306-1.6882 4.152-6.4401 6.3754-10.768 5.7573-14.19-.2526-28.008-5.0024-40.096-12.281-12.513-6.7642-25.978-11.765-39.856-14.904-4.0921-.6089-9.2037.4748-11.226 4.4322-.5568 2.8166 2.1961 4.9019 4.115 6.4712 6.6879 5.0027 15.141 6.3091 22.538 9.953 9.3594 4.1716 18.654 8.66 27.173 14.384 1.5702.9182 2.7928 3.4532.9619 4.7379-2.5043 1.7353-5.7087.4453-8.0905-.8691-4.8137-2.5718-9.564-5.2648-14.891-6.6267-11.399-3.4952-23.104-6.1104-34.315-10.269-4.4469-1.4822-10.351-2.429-13.974 1.361-.3549.4164-.6493.8868-.8468 1.3977z" style="stroke:url(#f);stroke-width:.96986;fill:url(#e)"/>
  <path style="stroke:url(#j);stroke-width:.43112;fill:#000000" d="m2626-1423.7c-3.1044-1.628-6.5133.8722-8.3852 3.2253-3.9785 4.8811-5.3846 11.18-8.663 16.522-5.1615 9.7784-11.505 18.954-15.176 29.45-1.0958 2.8381-3.0429 5.3275-5.6864 6.8654-.9291.8787-2.9285 1.0391-3.1438-.5713-1.0255-4.3015 1.3711-8.4317 2.5966-12.422 1.4458-3.8041 2.3019-7.7069 2.6568-11.75 1.289-8.2163 6.2873-15.42 6.7389-23.754-.1739-2.1464-.1879-4.9131-2.1072-6.3074-2.4625-1.5473-5.3903.036-6.9064 2.148-4.7209 5.7266-5.434 13.377-7.9705 20.164-3.1353 9.3645-6.507 18.655-8.7459 28.289-1.1416 3.2117-5.3599 5.539-8.4363 3.479-2.655-2.0402-2.038-5.8114-2.3579-8.7239-.5033-10.18-.8516-20.442-2.8861-30.44-.4224-1.7395-1.0499-4.2646-3.3676-3.9891-2.779.3264-4.9225 2.5804-6.6048 4.6428-1.6969 2.1685-2.2449 5.0424-1.6276 7.7035.9481 10.095 1.0435 20.259 1.1017 30.379-.2296 10.131-2.907 19.967-5.6711 29.646-2.0015 7.5893-3.5241 16.13-.056 23.504 3.4401 7.2669 9.2276 13.24 16.008 17.486 6.3495 3.8918 12.891 8.1576 20.47 9.1285 5.2174.6467 10.529.2001 15.778-.018 6.73-.349 13.108-2.7241 19.384-4.9991 5.3869-2.0035 10.324-4.99 14.937-8.3855 6.1213-4.0549 13.162-6.3858 19.381-10.271 2.1389-1.4244 4.3846-2.6396 6.8172-3.4811 2.9075-1.077 3.9016-4.9531 2.074-7.3739-1.9896-3.1252-6.1539-3.3668-9.4712-3.2139-8.7841.6102-17.156 3.6379-25.113 7.2418-2.586 1.166-5.7973 1.842-8.3023.101-3.3895-2.02-4.6941-6.4505-3.5823-10.135 2.1021-12.316 8.0685-23.712 16.006-33.266 7.5465-9.993 13.684-21.048 18.257-32.71 1.0727-3.4806.8076-8.0729-2.3684-10.358-2.3774-.8583-4.5572 1.2611-6.1775 2.7229-5.2409 5.157-7.499 12.34-11.651 18.294-4.872 7.5923-10.011 15.086-16.123 21.74-1.0074 1.2448-3.3757 1.9726-4.251.2087-1.1781-2.4095.3698-5.0272 1.8294-6.9259 2.8768-3.8482 5.8505-7.625 7.7425-12.08 4.5539-9.4569 8.3822-19.297 13.488-28.502 1.8798-3.6736 3.4866-8.6864.6689-12.342-.3153-.3638-.6855-.6825-1.104-.9221z"/>
  <path style="fill:#000000" d="m2592.4-1138.7c2.887-.4432 3.937-3.8059 4.0289-6.3097.2543-5.2411-1.9172-10.161-2.3605-15.365-1.3739-9.1106-1.6571-18.402-4.3852-27.257-.6686-2.4454-.5937-5.0778.4187-7.4165.1887-1.0488 1.4503-2.1451 2.3909-1.1714 2.815 2.3777 3.2501 6.3328 4.4017 9.6153.9115 3.2663 2.2673 6.3072 4.0289 9.1947 3.1987 6.1478 3.4087 13.451 7.2271 19.264 1.1781 1.3535 2.5557 3.2023 4.5325 3.188 2.4165-.1798 3.5975-2.6891 3.5694-4.8558.3344-6.1753-2.9707-11.659-4.6258-17.465-2.5281-7.831-4.861-15.729-8.1238-23.298-.8225-2.7185.8556-6.3655 3.9374-6.5052 2.7896.056 4.2407 2.8899 5.8957 4.6848 5.3714 6.5786 10.68 13.289 16.989 18.988 1.1435.9578 2.813 2.341 4.2312 1.0101 1.7024-1.5932 2.0254-4.1648 2.134-6.3799.066-2.2936-.988-4.492-2.718-5.9716-5.6282-6.3013-10.718-13.071-15.762-19.829-4.8557-6.908-7.9244-14.829-10.857-22.688-2.4107-6.0797-5.6131-12.561-11.586-15.791-5.9009-3.1726-12.736-4.3166-19.383-3.8114-6.1831.5299-12.68.9035-18.243 4.0006-3.819 2.1463-7.1601 5.0725-10.573 7.8145-4.3411 3.5623-7.4443 8.3093-10.528 12.938-2.6222 4.0078-4.457 8.4524-5.8714 13.011-2.1001 5.7467-5.6691 10.792-7.9194 16.473-.73 2.0129-1.6351 3.9385-2.8505 5.7059-1.4175 2.1601-.1674 5.2513 2.2556 5.9712 2.8796 1.112 5.7921-.7852 7.9411-2.5283 5.5898-4.7531 9.7073-10.924 13.262-17.276 1.1578-2.0608 2.9773-4.1022 5.5189-4.1726 3.272-.3216 6.338 2.0047 7.4142 5.0255 4.6807 9.2996 6.3143 19.893 5.7156 30.226-.1198 10.434 1.2305 20.883 3.9308 30.966 1.0019 2.8647 3.4505 5.8137 6.7103 5.7753 2.019-.6 2.4331-3.0994 2.7967-4.8809.9647-6.0505-1.073-11.985-1.2324-18.032-.4871-7.5011-.7461-15.068.063-22.554.06-1.3329 1.2886-2.9922 2.7479-2.2421 1.9817 1.0335 2.2381 3.5545 2.1979 5.5497-.027 4.0035-.153 8.007.7815 11.931 1.6224 8.5946 3.9206 17.087 5.0485 25.786.5558 3.3933 1.9571 7.55 5.6547 8.6081.3914.088.7974.1189 1.1964.073z"/>
  <path style="stroke:url(#k);stroke-width:.37151;fill:url(#l)" d="m2608.5-1089.6c-.5105-3.8505 3.3906-6.4443 6.5522-7.4949 6.5953-2.2786 13.685-1.3405 20.493-2.7148 12.142-1.6423 24.107-4.7446 36.427-4.5632 3.3707-.059 6.7031-1.1351 9.311-3.2991 1.2684-.6316 2.1975-2.651.604-3.4886-4.0846-2.7069-9.2954-1.788-13.914-2.0343-4.5095.053-8.8963-.543-13.239-1.7153-9.04-1.7913-18.44.6633-27.284-2.044-2.167-.9991-5.0403-2.0685-5.7593-4.5969-.6712-3.1519 2.0915-5.595 4.8678-6.3668 7.758-2.7289 15.99-.5542 24.019-.6059 10.938.3079 21.89.3413 32.768 1.6848 3.7767.037 7.8063-3.4651 6.8357-7.4511-1.1105-3.5401-5.2695-4.3359-8.178-5.7792-10.4-4.4042-20.944-8.6791-30.571-14.607-1.6489-1.1025-4.0369-2.7182-2.8667-5.0246 1.399-2.767 4.5614-4.138 7.3484-5.1022 2.9031-.9388 6.1022-.4133 8.6357 1.2434 10.142 4.835 20.681 8.8091 31.188 12.727 10.628 3.6232 21.883 4.5874 33.007 5.4013 8.6593.8109 18.126 2.4826 24.476 8.902 6.2494 6.3497 10.258 14.648 12.091 23.321 1.6284 8.0899 3.5733 16.522 1.6939 24.778-1.316 5.675-3.8055 11.031-6.0335 16.41-2.9286 6.8692-7.8312 12.6-12.591 18.262-4.1385 4.8411-9.1278 8.8401-14.419 12.345-6.5527 4.823-11.662 11.259-18.075 16.25-2.2973 1.6824-4.4178 3.5556-6.2207 5.7657-2.2289 2.6147-6.6407 2.1714-8.4628-.6532-2.4932-3.2611-1.1571-7.6861.2667-11.079 3.9835-8.9067 10.325-16.463 17.108-23.368 2.1991-2.2461 4.1266-5.3297 3.2691-8.6002-.8096-4.2966-4.9218-7.3432-9.1788-7.5907-13.616-2.508-27.747-.6445-40.714 3.972-13.274 4.0424-27.116 6.2141-40.993 6.5258-4.0305-.2108-8.7074-2.2372-9.8737-6.4125.013-2.8008 3.0494-4.261 5.1881-5.3894 7.3636-3.4869 15.698-3.0981 23.476-5.1487 9.7566-2.1747 19.513-4.6648 28.766-8.4869 1.6792-.574 3.3391-2.7604 1.8377-4.3436-2.058-2.1443-5.3715-1.5318-7.9033-.7368-5.1005 1.526-10.164 3.1802-15.521 3.4503-11.576 1.1327-23.273 1.365-34.797 3.1681-4.5389.5554-10.367.3164-13.096-4.009-.2583-.4669-.4487-.9736-.5385-1.5003z"/>
  <path d="m2936.5-1159.9c-1.2458-3.7358-5.9535-4.3661-9.3018-3.9187-7.0229.8545-13.067 4.8596-19.882 6.6327-11.795 3.8986-24.078 6.3886-35.225 12.029-3.0978 1.4447-6.613 1.9442-9.9515 1.1308-1.4368-.012-3.1808-1.4391-2.1008-2.9109 2.5194-4.2818 7.6767-5.7598 11.777-8.0371 4.1335-1.9546 7.8661-4.448 11.303-7.4461 7.4423-5.6495 17.1-7.5901 23.956-13.987 1.5304-1.8733 3.674-4.1247 3.2056-6.7487-.7889-3.1704-4.3924-4.1692-7.2651-3.639-8.283.9607-14.819 6.6006-22.158 10.121-9.8319 5.1415-19.797 10.039-29.114 16.096-3.4255 1.7116-8.6541.3113-9.5409-3.7526-.5609-3.7198 2.8757-6.2932 4.8847-8.9007 7.5203-8.6352 15.23-17.217 21.369-26.897 1.0128-1.7375 2.4709-4.2709.3797-5.8529-2.5047-1.8998-5.9959-1.7442-8.9641-1.3842-3.0632.4346-5.7448 2.3351-7.3175 4.9705-7.0939 8.9132-14.932 17.218-22.766 25.458-8.0757 8.025-17.904 13.905-27.68 19.59-7.5312 4.5869-15.416 10.317-18.35 18.989-2.8735 8.5637-2.8389 17.908-.6553 26.626 2.1108 8.0963 4.0855 16.645 9.4671 23.334 3.7214 4.5869 8.37 8.3615 12.791 12.274 5.7217 4.9588 12.736 8.0028 19.59 11.048 5.9225 2.5729 12.247 3.9999 18.626 4.8427 8.115 1.4835 15.631 5.0787 23.694 6.7766 2.8413.5122 5.6061 1.2772 8.2313 2.4903 3.1932 1.3921 7.0169-.9723 7.4223-4.3561.8228-4.0801-2.3612-7.5188-5.1666-9.9783-7.5883-6.347-16.726-10.415-25.976-13.694-3.0023-1.0698-6.1293-3.0233-6.8012-6.385-1.1716-4.2753 1.2225-8.8791 4.992-10.996 11.294-8.3361 25-12.917 38.869-14.472 13.894-2.2149 27.473-6.3867 40.258-12.269 3.5792-1.9832 6.9409-5.9082 6.1483-10.232-1.2567-2.5465-4.6724-2.528-7.1229-2.6061-8.2601.094-15.683 4.1527-23.682 5.7402-9.858 2.3538-19.855 4.4197-29.987 5.0485-1.7853.2232-4.2698-1.0317-3.6051-3.1417.9225-2.8689 4.2145-3.783 6.8753-4.1836 5.3264-.8758 10.676-1.6183 15.678-3.7529 11.052-4.1114 21.816-9.0978 33.119-12.576 4.3832-1.5108 9.5885-4.3186 10.154-9.4732.029-.5401-.023-1.0867-.1759-1.6066z" style="fill:url(#g)"/>
  <path d="m2939-1339.4c3.5371-.3326 5.7722 3.3231 6.6225 6.2494 1.8533 6.1075.7494 12.554 1.7688 18.825 1.079 11.155 3.4982 22.199 2.9042 33.453-.064 3.0829.8043 6.1662 2.6917 8.625.5333 1.1814 2.3466 2.1009 3.1678.6735 2.616-3.6392 1.9571-8.434 2.343-12.647.1073-4.1234.8056-8.1124 2.0279-12.041 1.9516-8.2004.034-16.878 2.8171-24.866.9885-1.9457 2.0658-4.5349 4.4019-5.1043 2.9041-.5038 5.041 2.1064 5.65 4.6705 2.2245 7.186-.049 14.634-.2812 21.974-.6618 9.9872-1.0733 19.996-2.6795 29.891-.1646 3.4507 2.8957 7.2555 6.5728 6.5072 3.2743-.8922 4.1463-4.666 5.5663-7.2738 4.3873-9.3523 8.6613-18.842 14.414-27.434 1.065-1.4688 2.6248-3.5953 4.6921-2.4454 2.4805 1.3748 3.6237 4.3128 4.4079 6.8937.7571 2.6862.1656 5.592-1.4366 7.85-4.7719 9.1015-8.7707 18.596-12.717 28.063-3.6813 9.5882-4.9539 19.842-6.0846 29.981-1.0422 7.8866-2.8992 16.481-8.9877 22.062-6.0207 5.4913-13.745 8.8665-21.736 10.24-7.4509 1.2071-15.225 2.6917-22.706.6868-5.141-1.4005-9.9499-3.862-14.789-6.0854-6.1767-2.9156-11.244-7.5959-16.254-12.143-4.2809-3.9507-7.7624-8.6502-10.782-13.608-4.1802-6.1569-9.8856-11.05-14.224-17.086-1.4578-2.1583-3.0963-4.1616-5.0538-5.8863-2.3122-2.1283-1.7534-6.1453.8915-7.7124 3.0675-2.1654 7.0655-.7904 10.117.6291 8.0025 3.9506 14.689 10.01 20.764 16.45 1.9767 2.0881 4.7279 3.957 7.747 3.287 3.9553-.5905 6.8827-4.2434 7.2571-8.1256 2.7657-12.358 1.5539-25.338-2.2147-37.351-3.2332-12.273-4.7368-25-4.5393-37.694.3327-3.6764 2.3476-7.8808 6.2044-8.8016 2.5596.1095 3.7886 2.9352 4.7457 4.9293 2.931 6.8516 2.2857 14.456 3.8895 21.636 1.6484 8.9933 3.5853 17.997 6.757 26.587.466 1.5547 2.4068 3.148 3.9061 1.8307 2.0315-1.8065 1.5869-4.8563.9483-7.1981-1.2176-4.7151-2.5535-9.4003-2.6138-14.306-.6331-10.62-.4386-21.319-1.6859-31.915-.3498-4.1677.071-9.4865 4.1196-11.83.4356-.22.9055-.3764 1.39-.4401z" style="fill:#111111"/>
  <path style="fill:#000000" d="m2913.6-1403.3c1.8116-2.0435.5577-5.0894-.872-6.9452-2.9483-3.9214-7.4493-6.1626-10.877-9.6407-6.4312-5.7318-12.186-12.245-19.438-16.984-1.9419-1.3593-3.4607-3.2973-4.1297-5.5842-.4912-.8672-.2386-2.4094 1.0196-2.2711 3.4453.029 6.1211 2.6132 8.9105 4.2861 2.607 1.8046 5.3989 3.1818 8.3908 4.2062 5.9737 2.5107 10.488 7.6378 16.707 9.5373 1.6558.2695 3.7513.7763 5.1647-.4149 1.6305-1.5732.9809-4.0835-.3337-5.625-3.449-4.6413-9.1023-6.6109-13.762-9.7982-6.4967-4.1217-12.893-8.4087-19.762-11.903-2.2157-1.4638-3.1875-5.0894-1.0542-7.031 2.0393-1.627 4.7764-.4552 7.0391-.1529 7.7936 1.5224 15.621 3.1772 23.563 3.5074 1.3945.011 3.4218.00010 3.6466-1.8013.2727-2.1629-1.0316-4.2055-2.2769-5.8635-1.3231-1.6889-3.3943-2.6406-5.5224-2.6713-7.8125-1.1697-15.518-2.9976-23.183-4.8454-7.6197-2.0674-14.559-5.9312-21.363-9.8313-5.366-2.9325-11.541-5.6806-17.767-4.436-6.1395 1.2434-11.739 4.5043-16.218 8.8386-4.1306 4.0751-8.58 8.2251-10.731 13.777-1.4644 3.8253-2.1194 7.9259-2.9361 11.937-.994 5.1555-.39 10.424.1574 15.596.5086 4.449 1.8444 8.7418 3.5498 12.866 1.9229 5.3878 2.3699 11.148 4.1457 16.579.6774 1.884 1.1768 3.8096 1.3584 5.8068.2711 2.4006 3.017 3.8768 5.1898 2.9472 2.7356-.9206 3.6968-4.0252 4.2013-6.5628 1.1804-6.7579.4555-13.656-.7829-20.348-.3984-2.1741-.3094-4.7293 1.4764-6.2984 2.1616-2.186 5.7564-2.3446 8.3349-.8149 8.9225 3.8921 16.426 10.535 22.169 18.325 6.1476 7.5761 13.362 14.285 21.328 19.924 2.4318 1.4619 5.955 2.12 8.2766.1449 1.0938-1.6379-.1022-3.6827-.9047-5.1815-2.9207-4.928-7.9317-7.9787-11.659-12.233-4.8318-5.1042-9.5389-10.392-13.429-16.259-.7532-.9947-.8606-2.922.6367-3.2543 2.0428-.4406 3.7332 1.2194 4.8965 2.6785 2.3729 2.8951 4.6735 5.8503 7.6899 8.1143 6.3015 5.2123 13.028 9.9473 19.036 15.53 2.4272 2.1084 5.9182 4.261 9.2099 2.813.3342-.1703.6444-.391.9039-.6627z"/>
  <path d="m2952.8-1459.4c2.8316-1.1759 5.6062 1.2687 7.0533 3.4648 3.0849 4.5633 3.8179 10.16 6.2567 15.071 3.7329 8.9221 8.543 17.412 10.922 26.843.7331 2.5581 2.2349 4.8789 4.4178 6.4253.7408.8381 2.4703 1.134 2.7834-.2521 1.2295-3.6674-.5358-7.4528-1.2918-11.025-.9625-3.4271-1.4035-6.894-1.3968-10.445-.4811-7.2588-4.2732-13.925-4.0157-21.221.3191-1.8562.5474-4.2657 2.3284-5.3305 2.2662-1.1557 4.6934.4517 5.849 2.4109 3.6658 5.3578 3.6895 12.079 5.3693 18.19 2 8.4033 4.212 16.76 5.4099 25.329.744 2.887 4.237 5.2443 7.078 3.6898 2.4723-1.5699 2.2294-4.9039 2.7356-7.4162 1.2337-8.8294 2.3389-17.743 4.892-26.294.5038-1.4824 1.2478-3.6333 3.2455-3.2123 2.3956.5015 4.087 2.6325 5.3915 4.5607 1.309 2.0218 1.562 4.5684.8164 6.8385-1.6146 8.7207-2.4916 17.568-3.3327 26.38-.5912 8.844.9731 17.623 2.6254 26.271 1.1508 6.7683 1.8102 14.328-1.7871 20.482-3.5647 6.0622-9.0733 10.814-15.312 13.984-5.8358 2.8945-11.868 6.1001-18.547 6.354-4.596.1559-9.1884-.6481-13.745-1.2478-5.8361-.8296-11.207-3.3971-16.497-5.8692-4.5367-2.1664-8.6052-5.1537-12.359-8.4722-5.0161-4.011-10.968-6.5916-16.083-10.462-1.7522-1.4079-3.6138-2.6421-5.6672-3.5651-2.449-1.1655-3.0123-4.62-1.231-6.5864 1.9772-2.5673 5.6241-2.4525 8.5023-2.0601 7.605 1.2177 14.662 4.5094 21.314 8.2705 2.1618 1.218 4.9067 2.0578 7.2252.7355 3.1107-1.495 4.5934-5.253 3.9125-8.5494-.8694-10.894-5.1775-21.288-11.347-30.232-5.7943-9.2953-10.278-19.406-13.351-29.923-.6626-3.1161-.073-7.0962 2.8724-8.8385 2.1382-.5621 3.8719 1.4545 5.1693 2.8546 4.1631 4.9022 5.5693 11.337 8.7219 16.848 3.6516 6.9948 7.5435 13.925 12.348 20.2.7807 1.163 2.787 1.9821 3.6873.5138 1.2147-2.0073.071-4.4087-1.0528-6.1768-2.2057-3.5773-4.5015-7.1-5.8019-11.129-3.2287-8.5947-5.7956-17.466-9.5249-25.885-1.3507-3.3475-2.3592-7.8402.3812-10.805.3032-.2924.6507-.5411 1.034-.7172z" style="fill:url(#h)"/>
  <path style="fill:#111111" d="m2976.8-1185.1c-2.4319-.1382-5.5752 1.5949-6.829 3.7635-2.4141 4.1762-1.2961 11.241 2.0684 13.073.7664.4173 1.6331.7905 1.9267.8299 1.6085.2156 5.4099-1.9482 8.0952-4.6087 3.2094-3.1799 3.9769-5.7624 2.584-8.687-.7677-1.6118-5.4805-4.237-7.8453-4.3706zm14.808 10.316c-1.7946-.2029-3.6319 1.0055-4.5623 3.4354-.8499 2.2197-.6721 4.0347.5689 5.8041 1.0085 1.4381 3.6156 1.1581 5.9685-.6403 2.5737-1.967 2.884-4.0308 1.0027-6.6682-.8409-1.1789-1.9011-1.8092-2.9778-1.931zm-14.27 8.415c-.7984-.025-1.4104.014-1.6464.1453-.4723.2622-2.9492.4317-5.504.3764-3.8701-.085-5.0603.1854-7.1308 1.6161-3.0378 2.0994-6.7404 8.6092-8.0081 14.08-1.4322 6.1796-.3596 13.841 2.2738 16.242 3.879 3.5365-3.535 15.974-15.12 25.364-8.1234 6.5844-15.569 17.796-15.757 23.727-.1863 5.8666 3.1695 10.995 8.0736 12.338 7.5718 2.0728 13.787-1.1477 18.562-9.6169 3.8098-6.7571 9.3713-14 12.307-16.029 1.3845-.9568 5.0757-4.7422 8.2024-8.4126 3.1268-3.6704 8.4791-9.4796 11.894-12.909 4.9182-4.9386 6.6377-7.2033 8.2735-10.898l2.0651-4.6648-2.0706-4.3088c-1.5572-3.2407-1.9436-4.8032-1.5557-6.3027.7086-2.7394-3.2608-13.548-6.2791-17.096-1.8633-2.1906-2.9254-2.7969-5.8238-3.33-.9746-.1791-1.9576-.2895-2.7555-.3211zm19.691 1.5186c-.6628-.082-1.4565.1982-2.7569.795-3.0148 1.3841-4.0815 5.2219-2.0665 7.4356 1.4749 1.6199 3.2497 1.4878 5.7574-.4289 2.5618-1.958 2.9465-4.323 1.0418-6.4155-.78-.8567-1.3128-1.3033-1.9758-1.3862zm2.8336 9.8956c-.8731-.01-1.8798.3096-2.8917 1.0314-2.3024 1.6426-2.8574 5.5277-.9631 6.7441 2.2933 1.4725 5.2832-.2792 6.3146-3.6994.7349-2.4363-.5389-4.0539-2.4598-4.0761zm-1.2835 9.3317c-3.0767-.1445-4.6381 3.3938-3.1095 7.0483.5685 1.3589 1.4132 2.4896 1.8774 2.5114 1.1488.054 2.9529-1.8531 3.974-4.201 1.0769-2.4759-.3405-5.246-2.7419-5.3587z"/>
  <path d="m2658.6-1358.8c.3293-2.2594 2.5105-4.821 4.7375-5.5658 4.2882-1.4337 10.566.9182 11.618 4.352.2395.7821.4196 1.6481.4007 1.925-.104 1.5177-2.8041 4.6029-5.751 6.57-3.5226 2.351-6.0382 2.5714-8.463.7436-1.336-1.0074-2.8631-5.8281-2.5422-8.0248zm6.697 15.534c.1503-1.6863 1.6048-3.1469 4.0107-3.5455 2.1979-.3642 3.8316.1395 5.2239 1.6111 1.1314 1.1961.3853 3.5378-1.7077 5.3614-2.2894 1.9946-4.2428 1.8924-6.3122-.3301-.9248-.9933-1.3047-2.0853-1.2147-3.0969zm10.405-11.527c.1263-.7381.2773-1.2928.4424-1.485.3295-.3843.9497-2.6274 1.3781-4.9841.6482-3.5702 1.1193-4.6124 2.8216-6.2456 2.498-2.396 9.171-4.5753 14.433-4.7134 5.9438-.1561 12.779 2.2661 14.49 5.1351 2.5203 4.2257 15.333-.2501 26.13-9.1285 7.5709-6.2253 19.264-10.96 24.746-10.02 5.423.9289 9.5035 4.9733 9.8164 9.7291.4832 7.3424-3.6402 12.446-12.314 15.243-6.9203 2.2313-14.615 5.9804-17.029 8.2962-1.1385 1.092-5.3072 3.7717-9.2645 5.9548-3.9574 2.1831-10.296 6.0089-14.086 8.5017-5.4581 3.5903-7.8605 4.7447-11.561 5.554l-4.6715 1.0214-3.5687-2.7098c-2.6841-2.0381-4.0467-2.686-5.4966-2.611-2.6486.1368-11.83-5.536-14.523-8.9736-1.6621-2.1221-2.0197-3.2113-1.9657-5.973.018-.9288.1008-1.8523.222-2.5909zm-2.2988 18.369c.048-.6242.4551-1.3005 1.2472-2.3828 1.8367-2.509 5.5614-2.7687 7.2165-.5029 1.2109 1.6583.7568 3.2636-1.4739 5.207-2.2788 1.9854-4.523 1.8951-6.0873-.2467-.6406-.8772-.9508-1.4502-.9024-2.0745zm8.5561 4.4584c.1548-.8035.6371-1.6682 1.4902-2.4618 1.9402-1.8067 5.6124-1.5874 6.3742.3804.9223 2.3825-1.2475 4.7996-4.582 5.1054-2.3754.2177-3.6219-1.2556-3.2821-3.0238zm8.811.5719c.4445-2.8528 3.9868-3.623 7.0563-1.5336 1.1416.7767 2.0214 1.7648 1.9543 2.1952-.1661 1.0652-2.2558 2.3645-4.6036 2.8617-2.4758.5244-4.754-1.2967-4.407-3.5233z" style="fill:url(#c)"/>
  <path style="fill:url(#d)" d="m2649-1291.2c2.4056.06 5.3604 2.0196 6.4201 4.2559 2.0401 4.3061.3701 11.171-3.0901 12.704-.7881.349-1.6715.6465-1.9637.6616-1.6011.082-5.169-2.3541-7.5983-5.1896-2.9035-3.3894-3.4509-5.9937-1.8439-8.761.8857-1.5246 5.7372-3.7296 8.0759-3.6706zm-15.41 8.9634c1.7832-.055 3.4946 1.2829 4.2147 3.7498.6578 2.2538.3366 4.0265-1.0278 5.6686-1.1089 1.3344-3.6529.8487-5.8246-1.1115-2.3751-2.1441-2.5143-4.2009-.4495-6.6458.9226-1.0928 2.0173-1.6279 3.0872-1.6611zm13.37 9.4348c.7881.039 1.3876.1274 1.6095.2758.4434.2964 2.8685.6628 5.3883.8143 3.817.2285 4.9668.5902 6.89 2.1655 2.8214 2.3119 5.9421 9.0192 6.7492 14.508.9119 6.1992-.7616 13.656-3.5478 15.808-4.1039 3.1692 2.1928 16.011 12.842 26.19 7.4669 7.1372 13.893 18.775 13.601 24.629-.289 5.7911-4.0065 10.57-8.943 11.496-7.6214 1.4302-13.481-2.2412-17.499-10.964-3.2062-6.9595-8.098-14.538-10.825-16.772-1.286-1.0536-4.6146-5.0779-7.3973-8.9432-2.7825-3.8657-7.5837-10.016-10.669-13.668-4.4438-5.2585-5.9543-7.6268-7.267-11.396l-1.657-4.759 2.3857-4.0751c1.7944-3.065 2.3007-4.5723 2.0397-6.0799-.4767-2.7539 4.3022-13.075 7.5598-16.325 2.011-2.0063 3.1056-2.5178 6.0019-2.809.9741-.097 1.9508-.1274 2.7387-.094zm-19.508-.092c.659-.029 1.4179.3124 2.6501 1.0048 2.8565 1.6057 3.5972 5.47 1.435 7.4872-1.5825 1.4758-3.3192 1.2029-5.6336-.8863-2.3643-2.1343-2.5525-4.4937-.5085-6.4001.8371-.7807 1.3975-1.1776 2.0569-1.2055zm-3.5872 9.5135c.8602.061 1.8256.4566 2.7634 1.2492 2.1346 1.8024 2.3678 5.6721.4047 6.7171-2.3766 1.265-5.1787-.7008-5.9188-4.151-.5268-2.4579.8576-3.9477 2.7505-3.8149zm.5113 9.2908c3.0408.1056 4.2928 3.7151 2.4933 7.1897-.669 1.2923-1.5919 2.3374-2.0508 2.3212-1.1354-.04-2.7579-2.0624-3.5738-4.4561-.8606-2.5244.758-5.1374 3.1313-5.0548z"/>
  <path d="m2637.3-1455.3c-.1488 2.0104-1.9101 4.4021-3.8247 5.1969-3.6869 1.5299-9.3621-.1494-10.502-3.1076-.2596-.6738-.4723-1.4251-.4729-1.6702 0-1.3431 2.1821-4.2283 4.6545-6.1443 2.9552-2.2901 5.1567-2.6411 7.4061-1.1828 1.2393.8037 2.8849 4.9536 2.7394 6.908zm-6.8665-13.262c-.028 1.4943-1.217 2.8712-3.3108 3.3723-1.9127.4578-3.3828.1163-4.7006-1.0929-1.071-.9826-.56-3.0912 1.1693-4.8277 1.8917-1.8992 3.6184-1.9312 5.5791-.1031.8764.8169 1.2792 1.7549 1.263 2.6514zm-8.4437 10.8c-.065.6578-.1635 1.1558-.2969 1.3354-.2662.3588-.6725 2.3728-.9027 4.4749-.3481 3.1844-.698 4.1315-2.0951 5.676-2.0503 2.2657-7.7906 4.6011-12.416 5.0508-5.2244.5083-11.395-1.1983-13.08-3.618-2.4831-3.5641-13.487 1.1767-22.441 9.6687-6.2787 5.9542-16.28 10.853-21.166 10.368-4.8336-.4799-8.6792-3.7867-9.2514-7.9552-.8835-6.4357 2.4292-11.187 9.8929-14.191 5.9548-2.3968 12.497-6.1783 14.479-8.368.9343-1.0328 4.4384-3.6525 7.7868-5.8219 3.3489-2.1693 8.6923-5.9338 11.874-8.3654 4.5825-3.5021 6.6263-4.6686 9.8341-5.6121l4.05-1.1908 3.3116 2.1636c2.4908 1.6274 3.7312 2.113 5.0032 1.9565 2.3238-.2857 10.763 4.1371 13.348 6.9962 1.596 1.7652 1.9791 2.702 2.1037 5.1373.04.819.027 1.6375-.034 2.2953zm.8791-16.319c0 .5527-.3196 1.1735-.9496 2.1761-1.4609 2.324-4.7246 2.785-6.3236.8929-1.1698-1.3847-.87-2.8267.9732-4.6772 1.8829-1.8906 3.8647-1.951 5.3759-.1625.6187.7326.9278 1.2177.924 1.7705zm-7.8126-3.3924c-.086.7172-.4571 1.5087-1.1588 2.2609-1.5957 1.7119-4.8432 1.7479-5.6369.063-.9607-2.0405.7992-4.3042 3.7164-4.7818 2.0783-.3397 3.2679.8798 3.079 2.4582zm-7.7947.046c-.213 2.5399-3.2848 3.4391-6.1181 1.7907-1.0538-.6129-1.8904-1.4281-1.8579-1.8113.081-.9484 1.839-2.2228 3.8753-2.8072 2.1476-.6163 4.2674.8454 4.1007 2.8278z" style="fill:url(#b)"/>
 </g>
</svg>
