<!-- Created with Inkscape (http://www.inkscape.org/) -->
<svg xmlns:rdf="http://www.w3.org/1999/02/22-rdf-syntax-ns#" xmlns="http://www.w3.org/2000/svg" height="522.36" width="497.36" version="1.1" xmlns:cc="http://creativecommons.org/ns#" xmlns:xlink="http://www.w3.org/1999/xlink" viewBox="0 0 497.36099 522.36175" xmlns:dc="http://purl.org/dc/elements/1.1/">
 <defs>
  <pattern id="b" xlink:href="#Wavy" patternTransform="matrix(1.066 0 0 1.066 -125.31 71.638)"/>
  <pattern id="c" xlink:href="#Wavy" patternTransform="matrix(1.066 0 0 1.066 -125.31 71.638)"/>
  <pattern id="Wavy" height="5.1805778" width="30.066020" patternUnits="userSpaceOnUse">
   <path style="fill:black" d="m7.597.061c-2.518-.248-4.941.241-7.607 1.727v1.273c2.783-1.63 5.183-2.009 7.482-1.781 2.298.228 4.497 1.081 6.781 1.938 4.567 1.713 9.551 3.458 15.813-.157l-.004-1.273c-6.44 3.709-10.816 1.982-15.371.273-2.278-.854-4.576-1.75-7.094-2z"/>
  </pattern>
  <pattern id="d" xlink:href="#a" patternTransform="matrix(3.9268 0 0 3.9268 2510.5 -1101.6)"/>
  <pattern id="e" xlink:href="#i" patternTransform="matrix(3.9268 0 0 3.9268 2510.5 -1101.6)"/>
  <pattern id="f" xlink:href="#a" patternTransform="matrix(3.9268 0 0 3.9268 2510.5 -1101.6)"/>
  <pattern id="g" xlink:href="#a" patternTransform="matrix(3.9268 0 0 3.9268 2510.5 -1101.6)"/>
  <pattern id="h" xlink:href="#a" patternTransform="matrix(3.9268 0 0 3.9268 2510.5 -1101.6)"/>
  <pattern id="i" height="1" width="2.5" patternUnits="userSpaceOnUse" patternTransform="translate(0) scale(10)">
   <rect style="fill:black" height="2" width="1" y="-.5" x="0"/>
  </pattern>
  <pattern id="a" height="1" width="1.5" patternUnits="userSpaceOnUse" patternTransform="translate(0) scale(10)">
   <rect style="fill:black" height="2" width="1" y="-.5" x="0"/>
  </pattern>
 </defs>
 <g transform="translate(-1859.4 1608.4)">
  <path style="fill:#000000" d="m2061.8-1456.3c-5.328.356-7.766 6.3171-8.3246 10.863-1.2825 9.5067 1.904 18.807 1.8979 28.356 1.0788 16.809.1423 33.777 3.7275 50.332.8356 4.5586.2879 9.3419-1.9219 13.444-.5073 1.8808-2.9768 3.6807-4.538 1.7601-4.7557-4.7711-4.93-12.043-6.5146-18.202-1.1499-6.0919-3.1441-11.843-5.9015-17.378-4.8657-11.698-4.1065-25.033-10.153-36.218-1.9341-2.6494-4.1546-6.2322-7.7575-6.5155-4.4297-.05-6.9734 4.3359-7.2607 8.2868-1.5742 11.196 3.589 21.701 5.6962 32.536 3.381 14.659 6.3958 29.41 11.156 43.706 1.0732 5.0802-2.5533 11.461-8.1888 11.233-5.0724-.5368-7.2726-5.9265-10.006-9.4546-8.7558-12.822-17.377-25.875-27.977-37.242-1.9328-1.9234-4.7578-4.7038-7.5489-2.5011-3.35 2.6359-4.3403 7.2695-4.884 11.287-.478 4.1675 1.0976 8.3366 4.0173 11.302 9.2665 12.358 17.48 25.484 25.61 38.582 7.7652 13.342 12.116 28.249 16.23 43.022 3.4409 11.451 8.2608 23.756 18.635 30.574 10.252 6.7007 22.524 9.853 34.71 9.9717 11.345.0010 23.236.336 33.854-4.4357 7.2915-3.3126 13.835-8.1201 20.48-12.581 8.4641-5.8101 14.858-13.972 21.2-21.922 5.4024-6.8901 9.439-14.699 12.728-22.781 4.7234-10.139 12.013-18.77 17-28.767 1.6444-3.5525 3.5941-6.9183 6.0839-9.9475 2.9195-3.7131 1.1258-9.5389-3.1751-11.229-5.0714-2.4759-10.673.5248-14.86 3.3638-10.924 7.7839-19.389 18.38-26.856 29.395-2.4308 3.5731-6.0641 7.0069-10.704 6.7379-6.0103.075-11.231-4.6423-12.719-10.312-7.0722-17.671-8.3923-37.221-5.6866-55.949 1.8488-18.986 1.0223-38.23-2.3202-57.018-1.377-5.3747-5.3763-11.129-11.32-11.568-3.7711.7775-4.9158 5.2654-5.8569 8.4536-2.7027 10.87.081 21.998-.5732 33.036-.2854 13.739-.9962 27.563-3.6384 41.071-.318 2.4187-2.8148 5.249-5.3556 3.6547-3.4481-2.1922-3.5212-6.8242-3.1362-10.452.6738-7.2882 1.5302-14.561.4414-21.854-1.6119-15.908-4.4708-31.736-5.1656-47.757-.4823-6.2678-2.3848-14.058-8.9543-16.563-.6992-.2219-1.434-.3409-2.1681-.319z"/>
  <path d="m2147.2-1361.3c2.8276 1.4828 5.9327-.7944 7.6377-2.9376 3.6237-4.4461 4.9045-10.183 7.8906-15.049 4.7013-8.9067 10.479-17.264 13.823-26.825.9983-2.585 2.7717-4.8526 5.1795-6.2535.8463-.8003 2.6675-.9464 2.8634.5205.9341 3.918-1.2489 7.6799-2.365 11.315-1.3168 3.4652-2.0967 7.0198-2.42 10.703-1.1739 7.4837-5.7266 14.045-6.1379 21.636.1584 1.9549.171 4.4752 1.9193 5.7451 2.2427 1.4093 4.9096-.031 6.2905-1.9566 4.3001-5.2161 4.9496-12.184 7.26-18.367 2.8557-8.5295 5.9269-16.992 7.9661-25.767 1.04-2.9253 4.8821-5.0453 7.6841-3.169 2.4183 1.8583 1.8563 5.2934 2.1477 7.9461.4583 9.2722.7758 18.62 2.6288 27.726.3846 1.5843.9563 3.8844 3.0673 3.6333 2.5314-.2973 4.4838-2.3502 6.0161-4.2285 1.5456-1.9755 2.0447-4.5932 1.4825-7.017-.8638-9.1948-.9506-18.453-1.0037-27.67.2092-9.2276 2.648-18.187 5.1657-27.003 1.823-6.9128 3.2097-14.692.051-21.409-3.1334-6.6189-8.4048-12.06-14.58-15.927-5.7834-3.5449-11.741-7.4303-18.645-8.3147-4.7523-.589-9.5899-.1822-14.372.016-6.1301.3177-11.94 2.4811-17.656 4.5532-4.9067 1.825-9.4042 4.5451-13.606 7.6379-5.5755 3.6935-11.988 5.8166-17.653 9.3553-1.9482 1.2974-3.9936 2.4043-6.2092 3.1707-2.6484.981-3.5539 4.5115-1.8891 6.7167 1.8119 2.8464 5.605 3.0664 8.6265 2.9271 8.001-.5556 15.627-3.3134 22.874-6.596 2.3555-1.0621 5.2805-1.6778 7.5622-.092 3.0872 1.8398 4.2757 5.8754 3.2629 9.231-1.9148 11.218-7.3492 21.598-14.579 30.3-6.8739 9.1021-12.464 19.171-16.629 29.794-.9769 3.1702-.7356 7.3531 2.1572 9.4341 2.1655.7817 4.1511-1.1486 5.6268-2.4802 4.7737-4.6971 6.8304-11.24 10.613-16.663 4.4377-6.9154 9.1186-13.741 14.685-19.802.9176-1.1338 3.0748-1.7968 3.8721-.1901 1.0731 2.1948-.3368 4.5791-1.6663 6.3083-2.6203 3.5051-5.329 6.9452-7.0523 11.004-4.1478 8.6138-7.635 17.576-12.286 25.961-1.7122 3.346-3.176 7.912-.6093 11.242.2871.3315.6245.6217 1.0056.84z" style="fill:url(#d)"/>
  <path d="m1977-1554.2c-1.3373 3.8815 2.1593 7.3875 5.214 9.1398 6.3538 3.745 13.895 4.2617 20.659 7.1148 12.233 4.2506 23.977 9.9763 36.777 12.375 3.4795.768 6.7055 2.5831 8.9526 5.3725 1.1814.9207 1.7201 3.2075-.1067 3.7408-4.7996 1.9465-10.004-.099-14.841-.8143-4.6599-1.0026-9.3296-1.3053-14.074-1.0026-9.7406-.043-18.963-4.5586-28.693-3.6109-2.4543.5802-5.6555 1.0846-6.9311 3.553-1.3571 3.1241.992 6.2349 3.7059 7.6174 7.4637 4.4557 16.448 3.9311 24.754 5.6705 11.396 1.9775 22.748 4.2422 34.298 5.1343 3.9201.7551 7.3592 5.2286 5.517 9.154-1.8937 3.4341-6.3693 3.3851-9.6849 4.2697-11.698 2.379-23.519 4.5934-34.736 8.7134-1.9395.7958-4.7525 1.968-4.0244 4.6029.8683 3.1602 3.8562 5.2444 6.541 6.8283 2.8104 1.5821 6.2346 1.7095 9.2068.5252 11.521-2.8794 23.273-4.7835 34.98-6.6366 11.77-1.522 23.632-.1578 35.327 1.3347 9.1405.9781 19.298 1.2338 27.224-4.0828 7.807-5.2655 13.702-13.021 17.422-21.62 3.3855-8.0386 7.1705-16.365 6.9572-25.312-.172-6.1551-1.6264-12.226-2.805-18.266-1.5917-7.7309-5.4672-14.697-9.2087-21.562-3.2705-5.8837-7.5997-11.074-12.345-15.816-5.7755-6.3719-9.7166-14.112-15.312-20.628-2.0267-2.2251-3.8299-4.6108-5.2336-7.2787-1.7601-3.1766-6.4234-3.6436-8.904-1.1002-3.2674 2.8548-2.8123 7.7193-2.0497 11.533 2.2565 10.063 7.2396 19.222 12.816 27.8 1.8065 2.7884 3.1559 6.3875 1.5808 9.5953-1.7406 4.281-6.6403 6.5734-11.102 5.9362-14.631-.2605-28.878-5.1579-41.342-12.663-12.902-6.9745-26.785-12.13-41.095-15.367-4.2193-.6278-9.4897.4895-11.575 4.5699-.5742 2.9043 2.2643 5.0543 4.2428 6.6723 6.8959 5.1582 15.612 6.5052 23.238 10.262 9.6503 4.3013 19.234 8.9292 28.017 14.832 1.6189.9468 2.8795 3.5605.9917 4.8852-2.582 1.7893-5.8861.4591-8.3419-.8961-4.9633-2.6517-9.8612-5.4284-15.354-6.8327-11.753-3.6039-23.822-6.3003-35.382-10.588-4.5852-1.5282-10.673-2.5043-14.408 1.4034-.3658.4293-.6694.9143-.873 1.4411z" style="fill:#000000"/>
  <path style="stroke:url(#e);stroke-width:.39268;fill:url(#f)" d="m1971.3-1507.4c-2.8276-1.4829-5.9326.7944-7.6376 2.9377-3.6238 4.4459-4.9045 10.183-7.8906 15.049-4.7013 8.9066-10.479 17.264-13.823 26.825-.9981 2.585-2.7716 4.8525-5.1795 6.2533-.8462.8003-2.6674.9464-2.8635-.5204-.934-3.918 1.2489-7.6799 2.3651-11.315 1.3169-3.465 2.0967-7.0198 2.42-10.703 1.174-7.4838 5.7267-14.045 6.138-21.636-.1584-1.955-.1711-4.4751-1.9193-5.7451-2.2429-1.4093-4.9097.033-6.2906 1.9565-4.3 5.2161-4.9496 12.185-7.2599 18.367-2.8558 8.5296-5.9269 16.992-7.9662 25.767-1.0398 2.9253-4.882 5.0451-7.6841 3.1688-2.4183-1.8583-1.8563-5.2933-2.1477-7.9461-.4584-9.2722-.7757-18.62-2.6288-27.726-.3847-1.5844-.9563-3.8844-3.0673-3.6334-2.5313.2973-4.4837 2.3503-6.016 4.2288-1.5456 1.9752-2.0447 4.5929-1.4825 7.0167.8636 9.1949.9505 18.453 1.0035 27.67-.2091 9.2276-2.6478 18.187-5.1655 27.003-1.823 6.9127-3.2099 14.692-.051 21.409 3.1334 6.619 8.4049 12.06 14.58 15.927 5.7834 3.5448 11.741 7.4303 18.645 8.3146 4.7522.5891 9.59.1823 14.372-.016 6.13-.3179 11.94-2.4812 17.656-4.5534 4.9066-1.8249 9.404-4.5451 13.606-7.6379 5.5755-3.6934 11.988-5.8165 17.653-9.3553 1.9482-1.2974 3.9937-2.4042 6.2094-3.1707 2.6483-.981 3.5538-4.5115 1.8891-6.7165-1.8122-2.8465-5.6052-3.0666-8.6268-2.9273-8.0009.5558-15.626 3.3135-22.874 6.5961-2.3554 1.0621-5.2804 1.6778-7.5621.092-3.0873-1.8399-4.2756-5.8754-3.2629-9.231 1.9147-11.218 7.3492-21.598 14.579-30.3 6.8737-9.1021 12.464-19.171 16.629-29.794.9771-3.1702.7356-7.3531-2.1572-9.434-2.1655-.7818-4.1509 1.1486-5.6268 2.4801-4.7736 4.6972-6.8304 11.24-10.613 16.663-4.4376 6.9154-9.1186 13.741-14.685 19.802-.9176 1.1338-3.0747 1.7967-3.872.1901-1.0731-2.1947.3368-4.579 1.6663-6.3084 2.6203-3.5051 5.3289-6.9452 7.0522-11.004 4.1479-8.6137 7.6349-17.576 12.286-25.961 1.7122-3.3461 3.1758-7.912.6093-11.242-.2872-.3314-.6244-.6217-1.0056-.8399z"/>
  <path style="fill:#000000" d="m1944.6-1225.6c3.3867-.5199 4.6184-4.4646 4.7262-7.4017.2983-6.1482-2.249-11.919-2.769-18.024-1.6117-10.687-1.9439-21.586-5.1441-31.974-.7843-2.8686-.6965-5.9566.4911-8.7001.2213-1.2302 1.7014-2.5163 2.8047-1.3741 3.3022 2.7892 3.8125 7.4289 5.1635 11.279 1.0693 3.8317 2.6597 7.3988 4.7262 10.786 3.7523 7.2119 3.9986 15.779 8.4779 22.598 1.3819 1.5877 2.998 3.7565 5.3169 3.7398 2.8347-.211 4.2202-3.1545 4.1872-5.6962.3923-7.2441-3.4849-13.677-5.4264-20.488-2.9657-9.1863-5.7023-18.451-9.5298-27.33-.9649-3.1891 1.0037-7.4672 4.6189-7.6311 3.2723.065 4.9746 3.39 6.916 5.4957 6.301 7.7171 12.529 15.589 19.929 22.274 1.3414 1.1236 3.2999 2.7461 4.9635 1.1849 1.9971-1.8689 2.376-4.8856 2.5033-7.4841.077-2.6905-1.159-5.2694-3.1884-7.005-6.6022-7.3919-12.574-15.334-18.49-23.261-5.6961-8.1036-9.2959-17.395-12.736-26.614-2.8279-7.1319-6.5845-14.735-13.591-18.524-6.9221-3.7216-14.94-5.0637-22.738-4.471-7.2532.6215-14.874 1.0598-21.4 4.6929-4.48 2.5178-8.3994 5.9504-12.403 9.167-5.0925 4.1788-8.7327 9.7473-12.35 15.178-3.076 4.7014-5.2283 9.9152-6.8876 15.262-2.4635 6.7413-6.6502 12.659-9.2899 19.324-.8564 2.3613-1.9182 4.6201-3.3439 6.6933-1.6628 2.5341-.1964 6.1602 2.646 7.0047 3.378 1.3045 6.7945-.9211 9.3155-2.9659 6.5571-5.5757 11.387-12.814 15.557-20.266 1.3583-2.4176 3.4926-4.8123 6.4741-4.8949 3.8383-.3771 7.435 2.3518 8.6974 5.8953 5.4908 10.909 7.4071 23.336 6.7048 35.457-.1405 12.24 1.4435 24.498 4.6111 36.325 1.1753 3.3605 4.0477 6.8198 7.8717 6.7748 2.3684-.7039 2.8541-3.6358 3.2807-5.7257 1.1316-7.0977-1.2587-14.059-1.4457-21.152-.5714-8.7993-.8753-17.676.074-26.457.07-1.5636 1.5116-3.5101 3.2235-2.6302 2.3247 1.2124 2.6254 4.1697 2.5783 6.5102-.032 4.6964-.1795 9.3928.9167 13.996 1.9032 10.082 4.5992 20.044 5.9222 30.249.6521 3.9806 2.2959 8.8567 6.6334 10.098.4591.1034.9354.1394 1.4035.085z"/>
  <path style="stroke:url(#g);stroke-width:.39268;fill:url(#h)" d="m1947.2-1162.2c-.5396-4.0698 3.5837-6.8115 6.9255-7.9219 6.9711-2.4084 14.464-1.4169 21.66-2.8695 12.833-1.7359 25.48-5.0149 38.503-4.8232 3.5627-.062 7.0849-1.1997 9.8414-3.4871 1.3407-.6676 2.3228-2.8019.6385-3.6874-4.3173-2.8611-9.825-1.8898-14.707-2.1501-4.7663.056-9.4031-.5739-13.993-1.813-9.555-1.8934-19.491.701-28.838-2.1605-2.2903-1.0561-5.3274-2.1864-6.0874-4.8589-.7094-3.3314 2.2107-5.9137 5.1452-6.7294 8.2-2.8845 16.901-.5858 25.387-.6405 11.562.3254 23.137.3607 34.635 1.7808 3.9919.038 8.2511-3.6626 7.2252-7.8757-1.1738-3.7418-5.5698-4.5829-8.6439-6.1084-10.992-4.6552-22.138-9.1737-32.313-15.44-1.7429-1.1653-4.267-2.873-3.0301-5.3108 1.4788-2.9247 4.8213-4.3738 7.7671-5.3929 3.0686-.9923 6.4499-.4369 9.1277 1.3142 10.72 5.1105 21.859 9.311 32.964 13.452 11.234 3.8297 23.13 4.8488 34.888 5.7091 9.1527.8571 19.159 2.624 25.871 9.4092 6.6055 6.7114 10.842 15.483 12.78 24.65 1.7212 8.5508 3.7769 17.463 1.7905 26.19-1.3911 5.9983-4.0224 11.659-6.3773 17.345-3.0955 7.2606-8.2775 13.318-13.308 19.303-4.3741 5.1169-9.6478 9.3437-15.241 13.048-6.9261 5.0977-12.326 11.901-19.105 17.176-2.4282 1.7783-4.6695 3.7582-6.5751 6.0941-2.356 2.7637-7.0191 2.2952-8.945-.6903-2.6352-3.447-1.223-8.1241.2819-11.711 4.2105-9.4142 10.914-17.401 18.083-24.7 2.3244-2.374 4.3617-5.6332 3.4553-9.0902-.8557-4.5414-5.2022-7.7615-9.7018-8.0231-14.392-2.6509-29.328-.6812-43.033 4.1983-14.03 4.2727-28.661 6.5681-43.328 6.8977-4.26-.2229-9.2035-2.3647-10.436-6.778.014-2.9603 3.2232-4.5037 5.4837-5.6964 7.7831-3.6856 16.592-3.2746 24.814-5.442 10.313-2.2987 20.624-4.9307 30.405-8.9706 1.7749-.6066 3.5294-2.9176 1.9424-4.591-2.1752-2.2665-5.6775-1.6191-8.3536-.7788-5.3911 1.613-10.743 3.3614-16.405 3.6469-12.235 1.1973-24.599 1.4427-36.78 3.3486-4.7975.587-10.958.3344-13.842-4.2374-.2731-.4935-.4744-1.029-.5692-1.5858z"/>
  <path d="m2276.8-1244.4c-1.1702-3.5092-5.5923-4.1012-8.7374-3.6809-6.5969.8026-12.274 4.5648-18.676 6.2302-11.079 3.6621-22.617 6.001-33.088 11.299-2.9098 1.357-6.2118 1.8262-9.3477 1.0622-1.3496-.011-2.9878-1.3519-1.9734-2.7343 2.3666-4.0221 7.211-5.4104 11.062-7.5495 3.8826-1.836 7.3888-4.1782 10.617-6.9944 6.9908-5.3068 16.062-7.1296 22.502-13.139 1.4377-1.7596 3.4512-3.8744 3.0112-6.3392-.741-2.9781-4.1259-3.9163-6.8244-3.4182-7.7804.9024-13.92 6.2001-20.814 9.5072-9.2353 4.8295-18.596 9.4295-27.347 15.12-3.2178 1.6077-8.1291.2923-8.9621-3.525-.5269-3.4941 2.7013-5.9114 4.5884-8.3607 7.064-8.1113 14.306-16.172 20.073-25.266.9514-1.6321 2.3211-4.0118.3567-5.4978-2.3527-1.7846-5.6321-1.6384-8.4202-1.3003-2.8773.4082-5.3963 2.1934-6.8736 4.669-6.6635 8.3724-14.026 16.174-21.385 23.913-7.5857 7.5381-16.818 13.061-26.001 18.402-7.0743 4.3086-14.48 9.6911-17.237 17.837-2.6992 8.0441-2.6667 16.821-.6156 25.011 1.9828 7.6051 3.8377 15.635 8.8927 21.918 3.4957 4.3086 7.8623 7.8542 12.015 11.529 5.3745 4.6579 11.964 7.5172 18.402 10.378 5.5632 2.4168 11.504 3.7572 17.496 4.5489 7.6226 1.3935 14.683 4.7705 22.256 6.3655 2.669.4811 5.266 1.1996 7.732 2.3391 2.9995 1.3077 6.5911-.9133 6.9719-4.0918.7729-3.8325-2.2179-7.0626-4.8531-9.3729-7.1279-5.9619-15.711-9.7832-24.4-12.863-2.8201-1.0048-5.7574-2.8399-6.3885-5.9976-1.1005-4.0159 1.1483-8.3404 4.6891-10.329 10.609-7.8303 23.483-12.134 36.51-13.594 13.051-2.0805 25.806-5.9992 37.816-11.525 3.362-1.8629 6.5198-5.5497 5.7753-9.6109-1.1805-2.3921-4.3889-2.3747-6.6908-2.448-7.7589.088-14.731 3.9007-22.246 5.3919-9.2598 2.211-18.651 4.1515-28.167 4.7422-1.677.2097-4.0107-.9691-3.3863-2.9511.8665-2.6948 3.9588-3.5535 6.4581-3.9297 5.0032-.8228 10.028-1.5202 14.727-3.5253 10.382-3.8619 20.492-8.5458 31.11-11.813 4.1172-1.4192 9.0067-4.0566 9.5375-8.8985.027-.5073-.022-1.0208-.1653-1.5091z" style="fill:url(#b)"/>
  <path d="m2280.5-1433.7c3.8142-.3587 6.2244 3.5835 7.1415 6.7391 1.9984 6.5861.808 13.538 1.9073 20.3 1.1636 12.029 3.7724 23.939 3.1318 36.075-.069 3.3245.8674 6.6494 2.9026 9.3009.5752 1.274 2.5305 2.2655 3.416.7262 2.8211-3.9243 2.1105-9.0948 2.5267-13.638.1157-4.4465.8687-8.7482 2.1869-12.984 2.1045-8.843.037-18.2 3.0378-26.815 1.066-2.0982 2.2277-4.8903 4.7469-5.5042 3.1316-.5433 5.436 2.2714 6.0927 5.0365 2.3988 7.749-.053 15.781-.3033 23.696-.7137 10.77-1.1574 21.563-2.8894 32.234-.1775 3.7212 3.1226 7.8242 7.0878 7.0171 3.5309-.962 4.4712-5.0315 6.0026-7.8438 4.731-10.085 9.3399-20.318 15.544-29.584 1.1485-1.5838 2.8305-3.877 5.0598-2.6369 2.6748 1.4825 3.9077 4.6508 4.7534 7.4339.8164 2.8967.1785 6.0301-1.5493 8.4651-5.1458 9.8147-9.458 20.053-13.714 30.262-3.9697 10.34-5.342 21.397-6.5614 32.331-1.1238 8.5046-3.1264 17.772-9.6919 23.791-6.4926 5.9215-14.822 9.5613-23.44 11.043-8.0347 1.3018-16.418 2.9026-24.486.7406-5.544-1.5101-10.73-4.1646-15.948-6.5622-6.6608-3.1441-12.125-8.1912-17.528-13.095-4.6163-4.2603-8.3707-9.3281-11.627-14.675-4.5078-6.6395-10.66-11.916-15.338-18.425-1.572-2.3275-3.3389-4.4877-5.4497-6.3476-2.4934-2.2951-1.8909-6.6269.9613-8.3168 3.3079-2.335 7.6191-.8522 10.91.6784 8.6295 4.2602 15.84 10.794 22.391 17.739 2.1315 2.2517 5.0983 4.2671 8.354 3.5445 4.2653-.6367 7.4221-4.5759 7.8259-8.7623 2.9824-13.326 1.6756-27.324-2.3883-40.278-3.4866-13.235-5.108-26.959-4.8951-40.648.3589-3.9644 2.5316-8.4983 6.6907-9.4913 2.7601.1182 4.0854 3.1653 5.1175 5.3156 3.1607 7.3885 2.4649 15.589 4.1943 23.332 1.7777 9.698 3.8663 19.407 7.2865 28.671.5025 1.6766 2.5955 3.3948 4.2122 1.9742 2.1907-1.948 1.7113-5.2369 1.0226-7.7622-1.3129-5.0845-2.7535-10.137-2.8186-15.427-.6827-11.452-.4729-22.99-1.818-34.416-.3772-4.4944.077-10.23 4.4425-12.758.4697-.2373.9764-.406 1.4989-.4746z" style="fill:#000000"/>
  <path style="fill:#000000" d="m2252.8-1501.5c1.8116-2.0435.5578-5.0894-.872-6.9452-2.9482-3.9214-7.4493-6.1625-10.877-9.6406-6.4311-5.7319-12.186-12.245-19.438-16.984-1.9418-1.3593-3.4607-3.2973-4.1297-5.5842-.4911-.8671-.2386-2.4093 1.0197-2.2711 3.4453.029 6.1211 2.6132 8.9104 4.2862 2.607 1.8045 5.3989 3.1817 8.3909 4.2062 5.9736 2.5106 10.488 7.6377 16.707 9.5372 1.6558.2696 3.7512.7763 5.1647-.4148 1.6305-1.5732.9808-4.0835-.3338-5.6251-3.4489-4.6413-9.1022-6.6108-13.762-9.7982-6.4968-4.1217-12.893-8.4087-19.762-11.903-2.2156-1.4639-3.1874-5.0895-1.0542-7.0311 2.0394-1.6269 4.7765-.4552 7.0391-.1528 7.7936 1.5223 15.621 3.1772 23.563 3.5074 1.3946.011 3.4218 0 3.6467-1.8013.2726-2.163-1.0314-4.2056-2.2769-5.8635-1.3231-1.6889-3.3943-2.6407-5.5224-2.6713-7.8125-1.1698-15.518-2.9977-23.183-4.8454-7.6196-2.0675-14.559-5.9313-21.363-9.8314-5.366-2.9325-11.541-5.6806-17.767-4.436-6.1395 1.2434-11.739 4.5043-16.218 8.8387-4.1305 4.075-8.5799 8.225-10.731 13.776-1.4644 3.8253-2.1194 7.9259-2.9361 11.937-.9941 5.1555-.39 10.424.1573 15.596.5086 4.449 1.8444 8.7418 3.5502 12.866 1.9229 5.3878 2.3699 11.148 4.1457 16.579.6774 1.884 1.1768 3.8096 1.3584 5.8068.2712 2.4006 3.017 3.8769 5.1898 2.9472 2.7356-.9206 3.6968-4.0252 4.2013-6.5628 1.1805-6.7579.4555-13.656-.7829-20.348-.3984-2.1741-.3094-4.7293 1.4765-6.2984 2.1615-2.186 5.7563-2.3446 8.3349-.8149 8.9225 3.8922 16.426 10.535 22.169 18.325 6.1477 7.5761 13.362 14.285 21.328 19.924 2.4319 1.4619 5.955 2.12 8.2767.1449 1.0937-1.6379-.1023-3.6827-.9047-5.1815-2.9208-4.9279-7.9317-7.9787-11.659-12.233-4.8318-5.1041-9.539-10.392-13.43-16.259-.7531-.9946-.861-2.9219.6368-3.2543 2.0427-.4406 3.7332 1.2195 4.8964 2.6785 2.3729 2.8951 4.6736 5.8503 7.6899 8.1143 6.3016 5.2123 13.028 9.9473 19.036 15.53 2.4272 2.1084 5.9182 4.261 9.2099 2.813.3342-.1704.6444-.391.9039-.6627z"/>
  <path d="m2288.5-1553.7c2.8316-1.1759 5.6062 1.2687 7.0533 3.4648 3.0849 4.5633 3.8179 10.16 6.2567 15.071 3.7329 8.9221 8.543 17.412 10.922 26.843.7331 2.5581 2.2349 4.8789 4.4178 6.4253.7408.8381 2.4703 1.134 2.7834-.2521 1.2295-3.6674-.5358-7.4528-1.2918-11.025-.9625-3.4271-1.4035-6.894-1.3968-10.445-.4811-7.2588-4.2732-13.925-4.0157-21.221.3191-1.8562.5474-4.2657 2.3284-5.3305 2.2662-1.1557 4.6934.4517 5.849 2.4109 3.6658 5.3578 3.6895 12.079 5.3693 18.19 2 8.4033 4.212 16.76 5.4099 25.329.744 2.887 4.237 5.2443 7.078 3.6898 2.4723-1.5699 2.2294-4.9039 2.7356-7.4162 1.2337-8.8294 2.3389-17.743 4.892-26.294.5038-1.4824 1.2478-3.6333 3.2455-3.2123 2.3956.5015 4.087 2.6325 5.3915 4.5607 1.309 2.0218 1.562 4.5684.8164 6.8385-1.6146 8.7207-2.4916 17.568-3.3327 26.38-.5912 8.844.9731 17.623 2.6254 26.271 1.1508 6.7683 1.8102 14.328-1.7871 20.482-3.5647 6.0622-9.0733 10.814-15.312 13.984-5.8358 2.8945-11.868 6.1001-18.547 6.354-4.596.1559-9.1884-.6481-13.745-1.2478-5.8361-.8296-11.207-3.3971-16.497-5.8692-4.5367-2.1664-8.6052-5.1537-12.359-8.4722-5.0161-4.011-10.968-6.5916-16.083-10.462-1.7522-1.4079-3.6138-2.6421-5.6672-3.5651-2.449-1.1655-3.0123-4.62-1.231-6.5864 1.9772-2.5673 5.6241-2.4525 8.5023-2.0601 7.605 1.2177 14.662 4.5094 21.314 8.2705 2.1618 1.218 4.9067 2.0578 7.2252.7355 3.1107-1.495 4.5934-5.253 3.9125-8.5494-.8694-10.894-5.1775-21.288-11.347-30.232-5.7943-9.2953-10.278-19.406-13.351-29.923-.6626-3.1161-.073-7.0962 2.8724-8.8385 2.1382-.5621 3.8719 1.4545 5.1693 2.8546 4.1631 4.9022 5.5693 11.337 8.7219 16.848 3.6516 6.9948 7.5435 13.925 12.348 20.2.7807 1.163 2.787 1.9821 3.6873.5138 1.2147-2.0073.071-4.4087-1.0528-6.1768-2.2057-3.5773-4.5015-7.1-5.8019-11.129-3.2287-8.5947-5.7956-17.466-9.5249-25.885-1.3507-3.3475-2.3592-7.8402.3812-10.805.3032-.2924.6507-.5411 1.034-.7172z" style="fill:url(#c)"/>
 </g>
</svg>
